<?xml version="1.0" encoding="utf-8"?>
<!-- Generator: Adobe Illustrator 22.1.0, SVG Export Plug-In . SVG Version: 6.00 Build 0)  -->
<svg version="1.1" id="Layer_2_1_" xmlns="http://www.w3.org/2000/svg" xmlns:xlink="http://www.w3.org/1999/xlink" x="0px" y="0px"
	 viewBox="0 0 417.7 157.1" style="enable-background:new 0 0 417.7 157.1;" xml:space="preserve">
<style type="text/css">
	.st0{fill:#FFFFFF;}
	.st1{fill:#A28E74;}
</style>
<title>Nexus Web Logo</title>
<path class="st0" d="M57.5,116h-13L27.2,71.8V116H0V16.7C0,1.3,18.2,0,18.2,0h8.5l17.5,44.8V0H72v101.3C72,112.7,57.5,116,57.5,116z
	"/>
<path class="st0" d="M152,0H98.8C85.7,0,80,11.2,80,15.2V116h55.2c10.3,0,16.8-9.8,16.8-15.8v-7.8h-44.7V70.5h35.3v-24h-35.5V24.3
	H152V0z"/>
<path class="st1" d="M164,0h84.8c13.3,0,4.8,10.2,4.8,10.2S226.8,38,219,46.3s-5.6,17.4,0,23.2s26.7,28.3,34.7,36
	c8,7.7-4.2,10.5-4.2,10.5H164c0,0-14-3.2-4.7-12.5s30.2-30,34.2-34s8.7-14.4,0-23.3l-34.2-35.3C159.3,10.8,150.8,0,164,0z"/>
<path class="st0" d="M263,0h28.8v92h16.7V0h9C329.2,0,336,8.5,336,15.5V116h-55.2c-8.7,0-17.8-8-17.8-16.3V0z"/>
<path class="st0" d="M417.7,0h-52.3C355.7,0,345,7.5,345,16.8v51c0,1.8,1.8,2.8,3.3,2.8h41.8v21.7H373V77.2h-10.3
	c-8.8,0-17.7,7.1-17.7,15.2V116h54.7c11.2,0,18-8.2,18-15.3V48.2c0-1.4-0.8-1.7-2.2-1.7h-42.3V24.2H390v15.5h11.5
	c8.2,0,16.2-7,16.2-14.2V0z"/>
<path class="st0" d="M125.2,127.2l-2.4,2.8c-1.7-1.5-3.9-2.4-6.2-2.4c-4.8,0-8.8,3.3-8.8,12.9c0,9.2,3.8,12.8,8.8,12.8
	c2.5-0.1,4.9-1,6.8-2.6l2.2,2.8c-2.4,2.4-5.7,3.7-9.1,3.6c-7.7,0-13.3-5.8-13.3-16.5s6-16.5,13.3-16.5
	C119.6,123.9,122.7,125,125.2,127.2z"/>
<path class="st0" d="M159.7,140.6c0,10.6-5.5,16.5-13.5,16.5s-13.5-5.7-13.5-16.4c0-10.5,5.5-16.6,13.5-16.6
	S159.7,129.8,159.7,140.6z M137.4,140.6c0,9.2,3.6,12.8,8.8,12.8c5.4,0,8.8-3.6,8.8-12.9s-3.3-12.9-8.8-12.9
	S137.4,131.4,137.4,140.6L137.4,140.6z"/>
<path class="st0" d="M193.4,146.3c0,6.3-4,10.8-11.2,10.8s-11.2-4.4-11.2-10.8v-21.7h4.4v21.4c0,5,2.2,7.4,6.7,7.4s6.8-2.4,6.8-7.4
	v-21.4h4.4L193.4,146.3z"/>
<path class="st0" d="M216.2,143h-5v13.5h-4.4v-31.9h8.4c8,0,12.1,3,12.1,9c0,4.5-2.3,7.2-6.9,8.6l8.6,14.3h-5.2L216.2,143z
	 M215.7,139.6c4.4,0,7-1.7,7-6c0-4-2.3-5.6-7.5-5.6h-3.9v11.6L215.7,139.6z"/>
<path class="st0" d="M243.9,156.5h-4.4v-31.9h4.4V156.5z"/>
<path class="st0" d="M274.5,128.1h-12.4v10.4h10.8v3.5h-10.8v11h13.3v3.5h-17.7v-31.9H275L274.5,128.1z"/>
<path class="st0" d="M296.5,143h-5v13.5h-4.4v-31.9h8.4c8,0,12.1,3,12.1,9c0,4.5-2.3,7.2-6.9,8.6l8.6,14.3h-5.2L296.5,143z
	 M296,139.6c4.4,0,7-1.7,7-6c0-4-2.3-5.6-7.5-5.6h-3.9v11.6L296,139.6z"/>
</svg>
