<svg id="Layer_2" data-name="Layer 2" xmlns="http://www.w3.org/2000/svg" viewBox="0 0 417.67 157.055"><title>nexus-web-logo-white</title><path d="M57.5,116h-13L27.17,71.83V116H0V16.67C0,1.33,18.17,0,18.17,0h8.5l17.5,44.83V0H72V101.33C72,112.67,57.5,116,57.5,116Z" style="fill:#fff"/><path d="M152,0H98.83C85.67,0,80,11.17,80,15.17V116h55.17c10.33,0,16.83-9.83,16.83-15.83V92.33H107.33V70.5h35.34v-24h-35.5V24.33H152Z" style="fill:#fff"/><path d="M164,0h84.83c13.34,0,4.84,10.17,4.84,10.17S226.83,38,219,46.33s-5.56,17.4,0,23.17,26.67,28.33,34.67,36S249.5,116,249.5,116H164s-14-3.19-4.67-12.5,30.17-30,34.17-34,8.68-14.36,0-23.33L159.33,10.83S150.83,0,164,0Z" style="fill:#a28e74"/><path d="M263,0h28.83V92H308.5V0h9C329.17,0,336,8.5,336,15.5V116H280.83c-8.66,0-17.83-8-17.83-16.33Z" style="fill:#fff"/><path d="M417.67,0H365.33C355.67,0,345,7.5,345,16.83v51c0,1.75,1.75,2.84,3.33,2.84h41.84V92.33H373V77.17H362.67c-8.84,0-17.67,7.08-17.67,15.16V116h54.67c11.16,0,18-8.17,18-15.33V48.17c0-1.42-.75-1.67-2.17-1.67H373.17V24.17H390v15.5h11.5c8.17,0,16.17-7,16.17-14.17Z" style="fill:#fff"/><path d="M125.18,127.17,122.77,130a9.342,9.342,0,0,0-6.16-2.37c-4.82,0-8.85,3.25-8.85,12.88,0,9.22,3.84,12.83,8.8,12.83a10.78,10.78,0,0,0,6.81-2.64l2.18,2.78a12.548,12.548,0,0,1-9.13,3.57c-7.73,0-13.34-5.79-13.34-16.54s6-16.49,13.25-16.49A12.583,12.583,0,0,1,125.18,127.17Z" style="fill:#fff"/><path d="M159.69,140.56c0,10.56-5.46,16.49-13.48,16.49s-13.48-5.74-13.48-16.45c0-10.51,5.51-16.58,13.48-16.58S159.69,129.81,159.69,140.56Zm-22.28,0c0,9.22,3.61,12.84,8.8,12.84,5.38,0,8.8-3.62,8.8-12.88s-3.33-12.93-8.8-12.93-8.8,3.8-8.8,13.01Z" style="fill:#fff"/><path d="M193.37,146.26c0,6.34-4,10.79-11.21,10.79S171,152.6,171,146.26V124.58h4.41v21.35c0,5,2.17,7.41,6.71,7.41s6.77-2.45,6.77-7.41V124.58h4.44Z" style="fill:#fff"/><path d="M216.17,143h-5v13.52h-4.4V124.58h8.38c8,0,12.14,3,12.14,9,0,4.49-2.31,7.18-6.9,8.57l8.62,14.31h-5.24Zm-.51-3.39c4.44,0,7-1.66,7-6,0-4-2.27-5.61-7.5-5.61h-3.94v11.58Z" style="fill:#fff"/><path d="M243.87,156.49h-4.4V124.58h4.4Z" style="fill:#fff"/><path d="M274.54,128.1H262.17v10.42h10.75V142H262.17v11h13.25v3.52H257.77V124.58h17.28Z" style="fill:#fff"/><path d="M296.55,143h-5v13.52h-4.4V124.58h8.38c8,0,12.14,3,12.14,9,0,4.49-2.32,7.18-6.9,8.57l8.61,14.31h-5.23Zm-.51-3.39c4.44,0,7-1.66,7-6,0-4-2.27-5.61-7.5-5.61H291.6v11.58Z" style="fill:#fff"/><path d="M326.79,154.06h4.861l-.305,2.34h-7.509V143.923h2.953Z" style="fill:#fff"/><path d="M337.824,154.06h4.862l-.306,2.34h-7.509V143.923h2.953Z" style="fill:#fff"/><path d="M354.044,144.985l-1.4,1.674a3.59,3.59,0,0,0-2.25-.864c-1.6,0-2.719,1.278-2.719,4.34,0,3.007,1.1,4.285,2.755,4.285a3.928,3.928,0,0,0,2.448-1.009l1.315,1.693a5.53,5.53,0,0,1-3.908,1.6c-3.421,0-5.708-2.3-5.708-6.571,0-4.178,2.431-6.519,5.672-6.519A5.487,5.487,0,0,1,354.044,144.985Z" style="fill:#fff"/></svg>